<?xml version="1.0" encoding="UTF-8" standalone="no"?>
<!-- Created with Inkscape (http://www.inkscape.org/) -->

<svg
   xmlns:dc="http://purl.org/dc/elements/1.1/"
   xmlns:cc="http://creativecommons.org/ns#"
   xmlns:rdf="http://www.w3.org/1999/02/22-rdf-syntax-ns#"
   xmlns:svg="http://www.w3.org/2000/svg"
   xmlns="http://www.w3.org/2000/svg"
   xmlns:sodipodi="http://sodipodi.sourceforge.net/DTD/sodipodi-0.dtd"
   xmlns:inkscape="http://www.inkscape.org/namespaces/inkscape"
   width="163.75908"
   height="100.36293"
   id="svg2"
   version="1.1"
   inkscape:version="0.48.5 r10040"
   sodipodi:docname="New document 1">
  <defs
     id="defs4" />
  <sodipodi:namedview
     id="base"
     pagecolor="#ffffff"
     bordercolor="#666666"
     borderopacity="1.0"
     inkscape:pageopacity="0.0"
     inkscape:pageshadow="2"
     inkscape:zoom="0.70710678"
     inkscape:cx="97.497679"
     inkscape:cy="58.887155"
     inkscape:document-units="px"
     inkscape:current-layer="layer1"
     showgrid="false"
     fit-margin-top="0"
     fit-margin-left="0"
     fit-margin-right="0"
     fit-margin-bottom="0"
     inkscape:window-width="1918"
     inkscape:window-height="1059"
     inkscape:window-x="0"
     inkscape:window-y="19"
     inkscape:window-maximized="1" />
  <metadata
     id="metadata7">
    <rdf:RDF>
      <cc:Work
         rdf:about="">
        <dc:format>image/svg+xml</dc:format>
        <dc:type
           rdf:resource="http://purl.org/dc/dcmitype/StillImage" />
        <dc:title></dc:title>
      </cc:Work>
    </rdf:RDF>
  </metadata>
  <g
     inkscape:label="Layer 1"
     inkscape:groupmode="layer"
     id="layer1"
     transform="translate(-651.56358,-376.40539)">
    <path
       d="m 401,429.36218 c 0,9.94113 -41.1898,18 -92,18 -50.8102,0 -92,-8.05887 -92,-18 0,-9.94112 41.1898,-18 92,-18 50.8102,0 92,8.05888 92,18 z"
       sodipodi:ry="18"
       sodipodi:rx="92"
       sodipodi:cy="429.36218"
       sodipodi:cx="309"
       id="path3769"
       style="fill:#5fbcd3;fill-opacity:1;stroke:none"
       sodipodi:type="arc"
       transform="matrix(0.67217502,0,0,1.7807349,309.5993,-348.81201)" />
    <path
       style="fill:#164450;fill-opacity:1;stroke:none"
       d="m 576.65625,407.6875 c 0.25655,0.28394 0.50543,0.58444 0.65625,0.875 0.20599,0.39685 0.3125,0.81126 0.3125,1.21875 0,0.40749 -0.10651,0.79065 -0.3125,1.1875 -0.20599,0.39685 -0.50438,0.80326 -0.90625,1.1875 -0.80375,0.76849 -1.97338,1.51258 -3.5,2.21875 -1.52662,0.70617 -3.39389,1.37196 -5.5625,2 -0.33241,0.0963 -0.71581,0.18692 -1.0625,0.28125 -14.20549,-1.75674 -30.98341,-2.78125 -49.03125,-2.78125 -18.01632,0 -34.77891,0.99891 -48.96875,2.75 -0.32319,-0.0886 -0.68827,-0.15972 -1,-0.25 -2.16861,-0.62804 -4.03588,-1.29383 -5.5625,-2 -1.52662,-0.70617 -2.7275,-1.45026 -3.53125,-2.21875 -0.40187,-0.38424 -0.70026,-0.79065 -0.90625,-1.1875 -0.20599,-0.39685 -0.3125,-0.78001 -0.3125,-1.1875 0,-0.40749 0.10651,-0.8219 0.3125,-1.21875 0.12927,-0.24905 0.35534,-0.50577 0.5625,-0.75 L 429.625,426.34375 c -0.27825,0.16973 -0.52826,0.35937 -0.78125,0.53125 l -0.8125,0.53125 0.0625,0 c -1.86702,1.42937 -2.84375,2.92557 -2.84375,4.46875 0,9.94113 41.1898,18 92,18 50.8102,0 92,-8.05887 92,-18 0,-1.49724 -0.95794,-2.953 -2.71875,-4.34375 l 0.0625,0 -0.25,-0.15625 c -0.0774,-0.0589 -0.16963,-0.12887 -0.25,-0.1875 -0.41546,-0.30309 -0.88182,-0.6097 -1.375,-0.90625 l -28.0625,-18.59375 z"
       id="path3765"
       inkscape:connector-curvature="0" />
    <path
       d="m 401,429.36218 c 0,9.94113 -41.1898,18 -92,18 -50.8102,0 -92,-8.05887 -92,-18 0,-9.94112 41.1898,-18 92,-18 50.8102,0 92,8.05888 92,18 z"
       sodipodi:ry="18"
       sodipodi:rx="92"
       sodipodi:cy="429.36218"
       sodipodi:cx="309"
       id="path3780"
       style="fill:#216778;fill-opacity:1;stroke:none"
       sodipodi:type="arc"
       transform="matrix(0.65584054,0,0,0.65584054,314.64665,128.17509)" />
    <path
       sodipodi:type="arc"
       style="fill:#890d59;fill-opacity:1;stroke:none"
       id="path2985"
       sodipodi:cx="309"
       sodipodi:cy="429.36218"
       sodipodi:rx="92"
       sodipodi:ry="18"
       d="m 401,429.36218 c 0,9.94113 -41.1898,18 -92,18 -50.8102,0 -92,-8.05887 -92,-18 0,-9.94112 41.1898,-18 92,-18 50.8102,0 92,8.05888 92,18 z"
       transform="translate(0.23509488,2.5)" />
    <path
       sodipodi:type="star"
       style="fill:#808000;fill-opacity:1;stroke:none"
       id="path2989"
       sodipodi:sides="3"
       sodipodi:cx="161"
       sodipodi:cy="136.36218"
       sodipodi:r1="56.079552"
       sodipodi:r2="106.00897"
       sodipodi:arg1="0.52540431"
       sodipodi:arg2="0.87220232"
       inkscape:flatsided="true"
       inkscape:rounded="0"
       inkscape:randomized="0"
       d="m 209.51561,164.4896 -97.13247,-0.17538 48.71811,-84.031498 z"
       inkscape:transform-center-x="-6.4387407"
       inkscape:transform-center-y="-3.6790629"
       transform="matrix(1.8382956,0,0,0.70033681,13.428849,312.33522)" />
    <path
       transform="matrix(0.65584239,0,0,2.1441092,106.64608,-512.24235)"
       sodipodi:type="arc"
       style="fill:#a02c2c;fill-opacity:1;stroke:none"
       id="path3763"
       sodipodi:cx="309"
       sodipodi:cy="429.36218"
       sodipodi:rx="92"
       sodipodi:ry="18"
       d="m 401,429.36218 c 0,9.94113 -41.1898,18 -92,18 -50.8102,0 -92,-8.05887 -92,-18 0,-9.94112 41.1898,-18 92,-18 50.8102,0 92,8.05888 92,18 z" />
    <path
       d="m 401,429.36218 c 0,9.94113 -41.1898,18 -92,18 -50.8102,0 -92,-8.05887 -92,-18 0,-9.94112 41.1898,-18 92,-18 50.8102,0 92,8.05888 92,18 z"
       sodipodi:ry="18"
       sodipodi:rx="92"
       sodipodi:cy="429.36218"
       sodipodi:cx="309"
       id="path3761"
       style="fill:#800000;fill-opacity:1;stroke:none"
       sodipodi:type="arc"
       transform="matrix(0.65584054,0,0,0.65584054,106.64665,126.76393)" />
    <path
       sodipodi:type="arc"
       style="fill:#d4aa00;fill-opacity:1;stroke:none"
       id="path3788"
       sodipodi:cx="483.92621"
       sodipodi:cy="474.65594"
       sodipodi:rx="4.6845822"
       sodipodi:ry="7.7781744"
       d="m 488.61079,474.65594 c 0,4.29577 -2.09736,7.77818 -4.68458,7.77818 -2.58722,0 -4.68458,-3.48241 -4.68458,-7.77818 0,-4.29576 2.09736,-7.77817 4.68458,-7.77817 2.58722,0 4.68458,3.48241 4.68458,7.77817 z"
       transform="translate(33.323792,-38.890873)" />
    <g
       id="g3798"
       transform="translate(4.890465,0)">
      <path
         sodipodi:type="arc"
         style="fill:#d4aa00;fill-opacity:1;stroke:none"
         id="path3790"
         sodipodi:cx="483.92621"
         sodipodi:cy="474.65594"
         sodipodi:rx="4.6845822"
         sodipodi:ry="7.7781744"
         d="m 488.61079,474.65594 c 0,4.29577 -2.09736,7.77818 -4.68458,7.77818 -2.58722,0 -4.68458,-3.48241 -4.68458,-7.77818 0,-4.29576 2.09736,-7.77817 4.68458,-7.77817 2.58722,0 4.68458,3.48241 4.68458,7.77817 z"
         transform="matrix(0.80256011,0.21239236,-0.25583625,0.96672013,210.41386,-127.87661)" />
      <path
         transform="matrix(-0.80256011,0.21239236,0.25583625,0.96672013,814.30521,-127.87661)"
         d="m 488.61079,474.65594 c 0,4.29577 -2.09736,7.77818 -4.68458,7.77818 -2.58722,0 -4.68458,-3.48241 -4.68458,-7.77818 0,-4.29576 2.09736,-7.77817 4.68458,-7.77817 2.58722,0 4.68458,3.48241 4.68458,7.77817 z"
         sodipodi:ry="7.7781744"
         sodipodi:rx="4.6845822"
         sodipodi:cy="474.65594"
         sodipodi:cx="483.92621"
         id="path3794"
         style="fill:#d4aa00;fill-opacity:1;stroke:none"
         sodipodi:type="arc" />
    </g>
    <g
       id="g3802"
       transform="translate(2.89567,0)">
      <path
         transform="matrix(0.57336215,0.43048551,-0.60041401,0.79968932,457.87944,-160.96387)"
         d="m 488.61079,474.65594 c 0,4.29577 -2.09736,7.77818 -4.68458,7.77818 -2.58722,0 -4.68458,-3.48241 -4.68458,-7.77818 0,-4.29576 2.09736,-7.77817 4.68458,-7.77817 2.58722,0 4.68458,3.48241 4.68458,7.77817 z"
         sodipodi:ry="7.7781744"
         sodipodi:rx="4.6845822"
         sodipodi:cy="474.65594"
         sodipodi:cx="483.92621"
         id="path3792"
         style="fill:#d4aa00;fill-opacity:1;stroke:none"
         sodipodi:type="arc" />
      <path
         sodipodi:type="arc"
         style="fill:#d4aa00;fill-opacity:1;stroke:none"
         id="path3796"
         sodipodi:cx="483.92621"
         sodipodi:cy="474.65594"
         sodipodi:rx="4.6845822"
         sodipodi:ry="7.7781744"
         d="m 488.61079,474.65594 c 0,4.29577 -2.09736,7.77818 -4.68458,7.77818 -2.58722,0 -4.68458,-3.48241 -4.68458,-7.77818 0,-4.29576 2.09736,-7.77817 4.68458,-7.77817 2.58722,0 4.68458,3.48241 4.68458,7.77817 z"
         transform="matrix(-0.57336215,0.43048551,0.60041401,0.79968932,570.82922,-160.96387)" />
    </g>
    <path
       transform="matrix(0.59503182,-0.31266017,0.82830343,1.5763661,186.49204,-163.41005)"
       sodipodi:type="arc"
       style="fill:#5fbcd3;fill-opacity:1;stroke:none"
       id="path3806"
       sodipodi:cx="309"
       sodipodi:cy="429.36218"
       sodipodi:rx="92"
       sodipodi:ry="18"
       d="m 401,429.36218 c 0,9.94113 -41.1898,18 -92,18 -50.8102,0 -92,-8.05887 -92,-18 0,-9.94112 41.1898,-18 92,-18 50.8102,0 92,8.05888 92,18 z" />
    <path
       id="path3808"
       d="m 774.78324,382.04791 c 0.35918,0.13202 0.71928,0.28227 0.98793,0.46932 0.36695,0.2555 0.654,0.5728 0.84354,0.93352 0.18954,0.36073 0.27348,0.74946 0.27571,1.19658 0.002,0.44713 -0.0729,0.94568 -0.24988,1.47276 -0.35405,1.05415 -1.04334,2.25689 -2.06627,3.59212 -1.02295,1.33523 -2.36623,2.79316 -3.99382,4.35785 -0.24948,0.23986 -0.54672,0.49843 -0.80974,0.7432 -13.39232,5.0525 -28.72124,11.94978 -44.6978,20.34467 -15.94864,8.38024 -30.32281,17.06157 -42.06962,25.21206 -0.32721,0.0723 -0.68358,0.17873 -1.00152,0.24384 -2.21185,0.45276 -4.17452,0.73193 -5.8544,0.81691 -1.67989,0.085 -3.08906,-0.0151 -4.15803,-0.32156 -0.53448,-0.15321 -0.98766,-0.37419 -1.3546,-0.62967 -0.36694,-0.2555 -0.63946,-0.54514 -0.829,-0.90586 -0.18955,-0.36072 -0.28802,-0.77712 -0.29025,-1.22424 -10e-4,-0.28059 0.0793,-0.61301 0.14908,-0.92557 l -16.36042,29.53034 c -0.16738,0.27968 -0.30048,0.56385 -0.44448,0.83368 l -0.47215,0.84822 0.0553,-0.0291 c -0.98788,2.13377 -1.15656,3.91258 -0.43875,5.27866 4.62408,8.80021 44.83523,-3.22512 89.81411,-26.85932 44.9789,-23.63422 77.69293,-49.92751 73.06884,-58.72773 -0.69643,-1.3254 -2.22158,-2.16851 -4.42721,-2.58062 l 0.0553,-0.0291 -0.294,-0.0221 c -0.0959,-0.0161 -0.2101,-0.0352 -0.30852,-0.0497 -0.50875,-0.075 -1.06421,-0.12955 -1.63873,-0.16267 l -33.49069,-3.40662 z"
       style="fill:#164450;fill-opacity:1;stroke:none"
       inkscape:connector-curvature="0" />
    <path
       transform="matrix(0.580572,-0.30506224,0.30506224,0.580572,412.82922,256.48714)"
       sodipodi:type="arc"
       style="fill:#216778;fill-opacity:1;stroke:none"
       id="path3810"
       sodipodi:cx="309"
       sodipodi:cy="429.36218"
       sodipodi:rx="92"
       sodipodi:ry="18"
       d="m 401,429.36218 c 0,9.94113 -41.1898,18 -92,18 -50.8102,0 -92,-8.05887 -92,-18 0,-9.94112 41.1898,-18 92,-18 50.8102,0 92,8.05888 92,18 z" />
    <path
       transform="matrix(0.88523348,-0.46514696,0.46514696,0.88523348,86.082587,239.45123)"
       d="m 488.61079,474.65594 c 0,4.29577 -2.09736,7.77818 -4.68458,7.77818 -2.58722,0 -4.68458,-3.48241 -4.68458,-7.77818 0,-4.29576 2.09736,-7.77817 4.68458,-7.77817 2.58722,0 4.68458,3.48241 4.68458,7.77817 z"
       sodipodi:ry="7.7781744"
       sodipodi:rx="4.6845822"
       sodipodi:cy="474.65594"
       sodipodi:cx="483.92621"
       id="path3812"
       style="fill:#d4aa00;fill-opacity:1;stroke:none"
       sodipodi:type="arc" />
    <g
       transform="matrix(0.88523348,-0.46514696,0.46514696,0.88523348,79.002428,287.1044)"
       id="g3814">
      <path
         transform="matrix(0.80256011,0.21239236,-0.25583625,0.96672013,210.41386,-127.87661)"
         d="m 488.61079,474.65594 c 0,4.29577 -2.09736,7.77818 -4.68458,7.77818 -2.58722,0 -4.68458,-3.48241 -4.68458,-7.77818 0,-4.29576 2.09736,-7.77817 4.68458,-7.77817 2.58722,0 4.68458,3.48241 4.68458,7.77817 z"
         sodipodi:ry="7.7781744"
         sodipodi:rx="4.6845822"
         sodipodi:cy="474.65594"
         sodipodi:cx="483.92621"
         id="path3816"
         style="fill:#d4aa00;fill-opacity:1;stroke:none"
         sodipodi:type="arc" />
      <path
         sodipodi:type="arc"
         style="fill:#d4aa00;fill-opacity:1;stroke:none"
         id="path3818"
         sodipodi:cx="483.92621"
         sodipodi:cy="474.65594"
         sodipodi:rx="4.6845822"
         sodipodi:ry="7.7781744"
         d="m 488.61079,474.65594 c 0,4.29577 -2.09736,7.77818 -4.68458,7.77818 -2.58722,0 -4.68458,-3.48241 -4.68458,-7.77818 0,-4.29576 2.09736,-7.77817 4.68458,-7.77817 2.58722,0 4.68458,3.48241 4.68458,7.77817 z"
         transform="matrix(-0.80256011,0.21239236,0.25583625,0.96672013,814.30521,-127.87661)" />
    </g>
    <g
       transform="matrix(0.88523348,-0.46514696,0.46514696,0.88523348,77.236568,288.03228)"
       id="g3820">
      <path
         sodipodi:type="arc"
         style="fill:#d4aa00;fill-opacity:1;stroke:none"
         id="path3822"
         sodipodi:cx="483.92621"
         sodipodi:cy="474.65594"
         sodipodi:rx="4.6845822"
         sodipodi:ry="7.7781744"
         d="m 488.61079,474.65594 c 0,4.29577 -2.09736,7.77818 -4.68458,7.77818 -2.58722,0 -4.68458,-3.48241 -4.68458,-7.77818 0,-4.29576 2.09736,-7.77817 4.68458,-7.77817 2.58722,0 4.68458,3.48241 4.68458,7.77817 z"
         transform="matrix(0.57336215,0.43048551,-0.60041401,0.79968932,457.87944,-160.96387)" />
      <path
         transform="matrix(-0.57336215,0.43048551,0.60041401,0.79968932,570.82922,-160.96387)"
         d="m 488.61079,474.65594 c 0,4.29577 -2.09736,7.77818 -4.68458,7.77818 -2.58722,0 -4.68458,-3.48241 -4.68458,-7.77818 0,-4.29576 2.09736,-7.77817 4.68458,-7.77817 2.58722,0 4.68458,3.48241 4.68458,7.77817 z"
         sodipodi:ry="7.7781744"
         sodipodi:rx="4.6845822"
         sodipodi:cy="474.65594"
         sodipodi:cx="483.92621"
         id="path3824"
         style="fill:#d4aa00;fill-opacity:1;stroke:none"
         sodipodi:type="arc" />
    </g>
  </g>
</svg>
